<?xml version="1.0" standalone="no"?>
<!DOCTYPE svg PUBLIC "-//W3C//DTD SVG 20010904//EN"
 "http://www.w3.org/TR/2001/REC-SVG-20010904/DTD/svg10.dtd">
<svg version="1.0" xmlns="http://www.w3.org/2000/svg"
 width="500.000000pt" height="500.000000pt" viewBox="0 0 500.000000 500.000000"
 preserveAspectRatio="xMidYMid meet">
<metadata>
Created by potrace 1.11, written by Peter Selinger 2001-2013
</metadata>
<g transform="translate(0.000000,500.000000) scale(0.100000,-0.100000)"
fill="#000000" stroke="none">
<path d="M2375 4490 c-94 -13 -191 -38 -264 -66 -263 -104 -444 -363 -533
-761 -19 -84 -22 -129 -22 -313 0 -186 3 -229 22 -320 85 -390 263 -654 607
-899 243 -173 402 -324 463 -438 66 -124 92 -308 54 -383 -28 -56 -72 -75
-177 -75 -105 0 -143 18 -189 84 -53 76 -106 295 -106 437 0 27 -3 73 -6 102
l-7 52 -358 0 -359 0 0 -139 c0 -599 147 -979 436 -1128 183 -95 353 -136 569
-137 222 -1 404 41 577 132 246 129 373 348 398 687 20 288 -36 548 -171 783
-97 168 -240 316 -455 469 -290 208 -440 376 -496 557 -18 61 -20 85 -15 225
5 169 18 227 62 291 36 52 85 74 143 66 59 -8 77 -25 101 -100 41 -126 61
-306 61 -552 l0 -142 88 -6 c178 -12 661 -28 676 -23 14 6 16 34 16 209 0 898
-177 1255 -680 1369 -97 22 -340 33 -435 19z m301 -170 c262 -33 422 -134 513
-322 83 -172 131 -464 131 -801 l0 -139 -62 6 c-35 3 -133 8 -219 12 l-155 6
-12 186 c-26 420 -94 574 -272 612 -192 41 -344 -70 -406 -295 -24 -90 -30
-359 -10 -453 50 -238 245 -469 606 -717 117 -80 274 -240 345 -349 139 -213
201 -479 176 -748 -32 -338 -173 -511 -492 -602 -211 -60 -396 -60 -608 0
-247 70 -375 185 -453 407 -51 143 -88 377 -88 560 l0 57 194 0 194 0 7 -67
c18 -186 67 -352 131 -448 75 -113 161 -156 318 -157 142 0 217 22 284 86 98
92 119 281 53 486 -42 130 -89 206 -200 323 -106 110 -183 174 -357 298 -314
224 -470 448 -545 784 -29 128 -36 387 -15 515 55 337 199 585 397 686 134 67
356 98 545 74z"/>
</g>
</svg>
